<?xml version="1.0" encoding="utf-8"?>
<!-- Generator: Adobe Illustrator 19.2.1, SVG Export Plug-In . SVG Version: 6.00 Build 0)  -->
<svg version="1.1" id="layer" xmlns="http://www.w3.org/2000/svg" xmlns:xlink="http://www.w3.org/1999/xlink" x="0px" y="0px"
	 viewBox="0 0 652 652" style="enable-background:new 0 0 652 652;" xml:space="preserve">
<style type="text/css">
	.st0{fill:#00338D;}
</style>
<path class="st0" d="M498.6,200.9v125c-4.4,3.4-8.1,7.1-11.5,11.1V200.9H348.6v113.8h-11.5V200.9H198.7v114h-11.4v-114H48.8v129.9
	L13.4,448.6h31.1l15.6-52.2h4.5l25.8,52.2h37.5l-25-52.2h56.7l-15.7,52.2h34l15.5-52h7.5v-0.2h75.6l-15,52h34.2l14.5-52h15.4l0.4,52
	h28.7l33-52h21.6l-11.1,52h33.7l10.9-52h19.5c-0.8,16.1,3.3,30.8,14,40.6c13.1,12,33.1,14.3,48,14.3c20.3,0,41.4-2.9,62.6-7.7
	l11.7-47.2H637V200.9H498.6z M182.2,321.5l-2,6.7l-18.4,61.2l-0.7,2.2h-60.6l-4.7-10l65.3-66.7h-41.9l-51,55l16.5-55H53.7V205.8
	h128.5V321.5z M218,373.2L218,373.2c-1.3,0.1-2.5,0.2-4,0.2c-1.9,0-3.3,0.1-4.7,0.1l-8.2-0.1l3.8-14.1l1.8-7L211,336
	c1.9,0,3.8-0.1,5.6-0.1h6.4c10.9,0,17.8,0.6,20.3,4.1c1.9,2.6,1.7,7.2-0.6,14.1C238.7,366,233.8,372,218,373.2 M311.6,391.5
	l13.5-48.1l0.5,48.1H311.6z M332.2,314.7H300l-22.1,76.9h-34.1c17.4-6.4,28-18.7,31.2-37c2.7-14.2,1.4-23.5-4.4-30.5
	c-8.7-10.4-26-9.5-41.5-9.5c-2.7,0-25.5,0-25.5,0V205.8h128.5V314.7z M410.3,391.5h-19.4l29.3-46.1L410.3,391.5z M482.1,316.8
	l-0.1,26.6c-9,12.4-14.5,25.9-17.1,36.8c-1,3.8-1.7,7.5-2,11.3h-18.9l16.2-76.7l-54.4,0L357,391.5h-3.5V205.8h128.6V316.8z
	 M556.2,422.9c-7.3,1.3-14.7,2.2-21.6,2.2c-18.5,0-31.5-8.6-31.7-28.7h59.9L556.2,422.9z M632.2,391.5h-32.4l5.3-21.4h-64.9
	l-5.3,21.4h-31.4v-4.4c0.5-2.4,0.9-4.9,1.5-7.7c5.7-23.1,20.9-45.9,47.1-45.9c10.4,0,20.7,4,19.3,18.3H610
	c1.5-6.7,4.1-18.1-3.2-28.6c-8.2-11.4-24.8-16-46.3-16c-15.3,0-37.7,2.4-57,15.1V205.8h128.7V391.5z"/>
</svg>
